<svg width="154" height="32" viewBox="0 0 154 32" fill="none" xmlns="http://www.w3.org/2000/svg">
<path d="M13 32H7.23239V30.6202H13V32Z" fill="#0368FF"/>
<path d="M26.4672 32H14.3827V30.6202H26.4672V32Z" fill="#0368FF"/>
<path d="M25.4162 17.6384L25.417 17.6392L25.4189 17.6408C25.4189 17.6408 25.4235 17.6447 25.4269 17.6475C25.4339 17.6532 25.4444 17.6617 25.4575 17.6725C25.4838 17.6943 25.522 17.7258 25.5688 17.7655C25.6626 17.8451 25.7924 17.9574 25.9363 18.0884C26.2222 18.349 26.5709 18.6902 26.802 18.998C27.3019 19.6639 27.5105 20.5164 27.5495 21.4068C27.5886 22.2982 27.4584 23.2397 27.2695 24.0953C27.0805 24.9515 26.8316 25.7269 26.6301 26.2879C26.5293 26.5685 26.4404 26.7962 26.3764 26.9536C26.3444 27.0322 26.3185 27.0933 26.3008 27.1351C26.2919 27.1559 26.2851 27.1721 26.2804 27.1829C26.278 27.1883 26.2747 27.1953 26.2747 27.1953L26.2734 27.1985L26.2729 27.1996L26.2589 27.2311H32.1338V28.6077H0V27.2311H4.63468L4.62154 27.1746L3.89362 24.0156L4.09826 24.0522C4.35045 24.0972 5.00222 24.2673 5.77485 24.4372C6.55729 24.6093 7.48115 24.7857 8.3089 24.8516C9.63177 24.9569 10.8879 25.0102 12.0845 24.9868V21.1998L13.1831 20.5115V24.9416C14.4561 24.8607 15.6603 24.6781 16.805 24.3587C19.3134 23.659 21.5439 22.3038 23.5907 19.9254C23.9426 19.5165 24.3481 18.9542 24.6671 18.4912C24.8262 18.2603 24.9632 18.0551 25.0603 17.9078C25.1088 17.8341 25.1473 17.7748 25.1737 17.7341C25.1869 17.7137 25.1972 17.6979 25.204 17.6873C25.2074 17.682 25.2101 17.6779 25.2118 17.6752L25.2137 17.6722L25.2968 17.5421L25.4162 17.6384Z" fill="#0368FF"/>
<path d="M39 28.6077H33.507V27.2311H39V28.6077Z" fill="#0368FF"/>
<path d="M14.1444 15.3422C18.3372 12.4088 27.0911 7.78266 29.2476 13.0627C29.37 14.5124 29.3982 15.4825 29.1127 16.586C25.6137 10.817 16.0014 16.9609 11.8099 20.1794C12.6639 18.73 13.663 16.6604 14.1444 15.3422Z" fill="#0368FF"/>
<path d="M12.0845 18.0336V15.7571H13.1831L12.0845 18.0336Z" fill="#0368FF"/>
<path d="M13.1831 1.96275C16.9257 2.1496 19.852 2.85848 22.1207 3.89592C20.2767 3.70044 16.4794 5.52549 14.8111 6.46254C14.4439 4.80155 13.8164 3.489 13.1831 2.58491V15.7544H12.0845V0.00323134H13.1831V1.96275Z" fill="#0368FF"/>
<path d="M15.0764 7.68482C17.2627 6.38109 21.7514 4.01808 24.2892 4.99586C26.1675 6.42012 27.8546 8.62465 28.5261 10.373C25.4644 7.83031 17.9945 11.4325 14.6422 13.5515C15.1264 11.5517 15.2214 9.25843 15.0764 7.68482Z" fill="#0368FF"/>
<path d="M32.1338 4.42263C32.2052 4.42265 32.2748 4.4446 32.3336 4.48528C32.3924 4.52596 32.4378 4.58359 32.4634 4.65063L32.9674 5.96917C32.9763 5.9924 32.9899 6.01372 33.0074 6.03127C33.0249 6.0489 33.046 6.06245 33.0691 6.07134L34.3795 6.57869C34.4461 6.6045 34.5033 6.65017 34.5437 6.70936C34.584 6.76855 34.6056 6.83872 34.6056 6.91048C34.6056 6.98219 34.584 7.05224 34.5437 7.11132C34.5033 7.17051 34.4461 7.21612 34.3795 7.24199L33.0691 7.74935C33.046 7.75823 33.0249 7.77179 33.0074 7.78941C32.9899 7.80704 32.9763 7.82827 32.9674 7.85152L32.4672 9.16091C32.4443 9.2228 32.4052 9.27738 32.354 9.31874C32.3028 9.36001 32.2414 9.3866 32.1764 9.39563C32.0983 9.40516 32.0191 9.38804 31.9517 9.34724C31.8843 9.30637 31.8324 9.24394 31.8042 9.17006L31.3002 7.85152C31.2913 7.82827 31.2777 7.80704 31.2602 7.78941C31.2428 7.77179 31.2216 7.75823 31.1986 7.74935L29.8881 7.24199C29.8215 7.21612 29.7643 7.17051 29.7239 7.11132C29.6836 7.05224 29.662 6.98219 29.662 6.91048C29.662 6.83872 29.6836 6.76855 29.7239 6.70936C29.7643 6.65017 29.8215 6.6045 29.8881 6.57869L31.1986 6.07134C31.2216 6.06245 31.2428 6.0489 31.2602 6.03127C31.2777 6.01372 31.2913 5.9924 31.3002 5.96917L31.8042 4.65063C31.8298 4.58359 31.8752 4.52596 31.934 4.48528C31.9928 4.4446 32.0624 4.42265 32.1338 4.42263Z" fill="#0368FF"/>
<path d="M36.1159 4.91245e-06C36.1918 -0.000377917 36.266 0.0226913 36.3286 0.0658778C36.3912 0.109074 36.4394 0.170339 36.4665 0.241718L37.0649 1.80761C37.077 1.83917 37.0955 1.86784 37.1193 1.89177C37.143 1.91568 37.1714 1.93442 37.2027 1.94662L38.7591 2.54915C38.83 2.57653 38.891 2.62494 38.934 2.68789C38.9771 2.75088 39 2.82575 39 2.90218C39 2.97855 38.977 3.05325 38.934 3.1162C38.891 3.17914 38.8301 3.22755 38.7591 3.25493L37.2033 3.85693C37.1719 3.86913 37.1434 3.88786 37.1196 3.91178C37.0958 3.9357 37.0772 3.96439 37.0651 3.99594L36.4665 5.56236C36.4392 5.63366 36.3912 5.69494 36.3286 5.73821C36.2661 5.78149 36.1919 5.80461 36.1159 5.80462C36.04 5.80462 35.9658 5.7815 35.9032 5.73821C35.8407 5.69494 35.7926 5.63366 35.7654 5.56236L35.167 3.99647C35.1549 3.96493 35.1363 3.93624 35.1126 3.91232C35.0888 3.88843 35.0605 3.86967 35.0291 3.85747L33.4821 3.25843C33.4083 3.2309 33.3449 3.18109 33.3003 3.11593C33.2556 3.05075 33.2318 2.9733 33.2324 2.89411C33.2336 2.81905 33.2572 2.74613 33.3 2.68466C33.3428 2.62317 33.403 2.57583 33.4727 2.54915L35.0286 1.94715C35.0599 1.93496 35.0885 1.91623 35.1123 1.89231C35.136 1.86841 35.1544 1.83967 35.1665 1.80815L35.7654 0.241718C35.7924 0.170389 35.8404 0.109066 35.903 0.0658778C35.9656 0.022669 36.04 -0.000386905 36.1159 4.91245e-06Z" fill="#0368FF"/>
<path d="M31.1986 32H27.7314V30.6202L31.1986 30.6202V32Z" fill="#0368FF"/>
<path d="M47 22.4834V20.9795L48.543 20.6865V10.0713L47 9.77832V8.26465H52.0684L56.2383 18.5479H56.2969L60.3398 8.26465H65.4668V9.77832L63.9141 10.0713V20.6865L65.4668 20.9795V22.4834H59.9102V20.9795L61.541 20.6865V17.376L61.5605 11.1553L61.5117 11.1455L57.1074 22.1611H55.3203L50.7891 11.2041L50.7402 11.2139L50.8672 17.21V20.6865L52.5566 20.9795V22.4834H47Z" fill="#0368FF"/>
<path d="M68.4609 26.751C68.2591 26.751 68.0247 26.7314 67.7578 26.6924C67.4974 26.6533 67.2695 26.6045 67.0742 26.5459L67.3477 24.7002C67.4648 24.7197 67.6048 24.736 67.7676 24.749C67.9369 24.762 68.0703 24.7686 68.168 24.7686C68.5781 24.7686 68.9232 24.6383 69.2031 24.3779C69.4831 24.124 69.7109 23.7692 69.8867 23.3135L70.209 22.4639L66.5957 13.6064L65.3652 13.4307V11.917H70.4824V13.4307L69.1836 13.626L71.0195 18.5479L71.3418 19.4658H71.4004L73.5684 13.6162L72.2695 13.4307V11.917H77.123V13.4307L75.9805 13.5967L71.8887 24.0752C71.6934 24.57 71.4492 25.0192 71.1562 25.4229C70.8698 25.833 70.5052 26.1553 70.0625 26.3896C69.6263 26.6305 69.0924 26.751 68.4609 26.751Z" fill="#0368FF"/>
<path d="M87.1152 22.6885C86.1712 22.6885 85.3184 22.5127 84.5566 22.1611C83.7949 21.8031 83.1406 21.3018 82.5938 20.6572C82.0534 20.0127 81.6367 19.251 81.3438 18.3721C81.0508 17.4932 80.9043 16.5296 80.9043 15.4814V15.2666C80.9043 14.2249 81.0508 13.2646 81.3438 12.3857C81.6367 11.5068 82.0534 10.7451 82.5938 10.1006C83.1406 9.44954 83.7949 8.94824 84.5566 8.59668C85.3184 8.23861 86.168 8.05957 87.1055 8.05957C88.0755 8.05957 88.9447 8.23861 89.7129 8.59668C90.4811 8.94824 91.1354 9.44954 91.6758 10.1006C92.2161 10.7451 92.6296 11.5068 92.916 12.3857C93.2025 13.2646 93.3457 14.2249 93.3457 15.2666V15.4814C93.3457 16.5296 93.2025 17.4932 92.916 18.3721C92.6296 19.251 92.2161 20.0127 91.6758 20.6572C91.1354 21.3018 90.4811 21.8031 89.7129 22.1611C88.9447 22.5127 88.0788 22.6885 87.1152 22.6885ZM87.1152 20.7354C87.9746 20.7354 88.681 20.5173 89.2344 20.0811C89.7943 19.6383 90.2077 19.0231 90.4746 18.2354C90.748 17.4476 90.8848 16.5296 90.8848 15.4814V15.2471C90.8848 14.2119 90.748 13.3037 90.4746 12.5225C90.2012 11.7412 89.7845 11.1292 89.2246 10.6865C88.6712 10.2438 87.9648 10.0225 87.1055 10.0225C86.2852 10.0225 85.5983 10.2438 85.0449 10.6865C84.4915 11.1292 84.0749 11.7412 83.7949 12.5225C83.515 13.3037 83.375 14.2119 83.375 15.2471V15.4814C83.375 16.5231 83.515 17.4411 83.7949 18.2354C84.0749 19.0231 84.4915 19.6383 85.0449 20.0811C85.6048 20.5173 86.2949 20.7354 87.1152 20.7354Z" fill="#0368FF"/>
<path d="M97.7461 22.6885C96.8932 22.6885 96.1641 22.4736 95.5586 22.0439C94.9531 21.6143 94.4876 21.0153 94.1621 20.2471C93.8431 19.4723 93.6836 18.5706 93.6836 17.542V17.3369C93.6836 16.2106 93.8431 15.2275 94.1621 14.3877C94.4876 13.5479 94.9531 12.8936 95.5586 12.4248C96.1706 11.9561 96.8965 11.7217 97.7363 11.7217C98.3418 11.7217 98.8691 11.8389 99.3184 12.0732C99.7741 12.3011 100.165 12.6299 100.49 13.0596V9.05566L98.9375 8.7627V7.24902H102.951V20.6865L104.416 20.9795V22.4834H100.822L100.627 21.2041C100.295 21.6924 99.888 22.0635 99.4062 22.3174C98.931 22.5648 98.3776 22.6885 97.7461 22.6885ZM98.4395 20.7451C98.9082 20.7451 99.3119 20.6442 99.6504 20.4424C99.9889 20.234 100.269 19.9346 100.49 19.5439V14.8857C100.275 14.5081 99.9954 14.2119 99.6504 13.9971C99.3119 13.7757 98.9147 13.665 98.459 13.665C97.9251 13.665 97.4857 13.8213 97.1406 14.1338C96.8021 14.4398 96.5514 14.8695 96.3887 15.4229C96.2259 15.9697 96.1445 16.6077 96.1445 17.3369V17.542C96.1445 18.5186 96.3236 19.2965 96.6816 19.876C97.0462 20.4554 97.6322 20.7451 98.4395 20.7451Z" fill="#0368FF"/>
<path d="M106.863 26.751C106.661 26.751 106.427 26.7314 106.16 26.6924C105.9 26.6533 105.672 26.6045 105.477 26.5459L105.75 24.7002C105.867 24.7197 106.007 24.736 106.17 24.749C106.339 24.762 106.473 24.7686 106.57 24.7686C106.98 24.7686 107.326 24.6383 107.605 24.3779C107.885 24.124 108.113 23.7692 108.289 23.3135L108.611 22.4639L104.998 13.6064L103.768 13.4307V11.917H108.885V13.4307L107.586 13.626L109.422 18.5479L109.744 19.4658H109.803L111.971 13.6162L110.672 13.4307V11.917H115.525V13.4307L114.383 13.5967L110.291 24.0752C110.096 24.57 109.852 25.0192 109.559 25.4229C109.272 25.833 108.908 26.1553 108.465 26.3896C108.029 26.6305 107.495 26.751 106.863 26.751Z" fill="#0368FF"/>
<path d="M119.682 22.6885C118.926 22.6885 118.22 22.6169 117.562 22.4736C116.911 22.3239 116.257 22.1058 115.6 21.8193L115.57 19.0264H117.338L117.709 20.5498C117.989 20.6735 118.275 20.7712 118.568 20.8428C118.868 20.9079 119.2 20.9404 119.564 20.9404C120.268 20.9404 120.762 20.8167 121.049 20.5693C121.342 20.3219 121.488 20.016 121.488 19.6514C121.488 19.2998 121.335 19.0003 121.029 18.7529C120.73 18.499 120.154 18.2809 119.301 18.0986C118.038 17.8252 117.107 17.4281 116.508 16.9072C115.915 16.3799 115.619 15.6963 115.619 14.8564C115.619 14.277 115.772 13.7529 116.078 13.2842C116.391 12.8154 116.846 12.4411 117.445 12.1611C118.051 11.8747 118.793 11.7314 119.672 11.7314C120.473 11.7314 121.182 11.8161 121.801 11.9854C122.426 12.1481 122.956 12.3662 123.393 12.6396L123.451 15.3252H121.703L121.4 13.9287C121.199 13.7855 120.964 13.6748 120.697 13.5967C120.43 13.5186 120.124 13.4795 119.779 13.4795C119.239 13.4795 118.812 13.5999 118.5 13.8408C118.188 14.0752 118.031 14.3714 118.031 14.7295C118.031 14.9378 118.08 15.1266 118.178 15.2959C118.282 15.4652 118.477 15.6214 118.764 15.7646C119.057 15.9014 119.483 16.0348 120.043 16.165C121.417 16.484 122.4 16.9007 122.992 17.415C123.585 17.9294 123.881 18.6097 123.881 19.4561C123.881 20.4001 123.536 21.1748 122.846 21.7803C122.156 22.3857 121.101 22.6885 119.682 22.6885Z" fill="#0368FF"/>
<path d="M128.74 22.6885C127.985 22.6885 127.279 22.6169 126.621 22.4736C125.97 22.3239 125.316 22.1058 124.658 21.8193L124.629 19.0264H126.396L126.768 20.5498C127.048 20.6735 127.334 20.7712 127.627 20.8428C127.926 20.9079 128.258 20.9404 128.623 20.9404C129.326 20.9404 129.821 20.8167 130.107 20.5693C130.4 20.3219 130.547 20.016 130.547 19.6514C130.547 19.2998 130.394 19.0003 130.088 18.7529C129.788 18.499 129.212 18.2809 128.359 18.0986C127.096 17.8252 126.165 17.4281 125.566 16.9072C124.974 16.3799 124.678 15.6963 124.678 14.8564C124.678 14.277 124.831 13.7529 125.137 13.2842C125.449 12.8154 125.905 12.4411 126.504 12.1611C127.109 11.8747 127.852 11.7314 128.73 11.7314C129.531 11.7314 130.241 11.8161 130.859 11.9854C131.484 12.1481 132.015 12.3662 132.451 12.6396L132.51 15.3252H130.762L130.459 13.9287C130.257 13.7855 130.023 13.6748 129.756 13.5967C129.489 13.5186 129.183 13.4795 128.838 13.4795C128.298 13.4795 127.871 13.5999 127.559 13.8408C127.246 14.0752 127.09 14.3714 127.09 14.7295C127.09 14.9378 127.139 15.1266 127.236 15.2959C127.34 15.4652 127.536 15.6214 127.822 15.7646C128.115 15.9014 128.542 16.0348 129.102 16.165C130.475 16.484 131.458 16.9007 132.051 17.415C132.643 17.9294 132.939 18.6097 132.939 19.4561C132.939 20.4001 132.594 21.1748 131.904 21.7803C131.214 22.3857 130.16 22.6885 128.74 22.6885Z" fill="#0368FF"/>
<path d="M138.326 22.6885C137.33 22.6885 136.461 22.4671 135.719 22.0244C134.983 21.5752 134.41 20.9567 134 20.1689C133.596 19.3812 133.395 18.4795 133.395 17.4639V17.0537C133.395 16.0251 133.593 15.1104 133.99 14.3096C134.394 13.5088 134.947 12.8773 135.65 12.415C136.354 11.9528 137.154 11.7217 138.053 11.7217C139.01 11.7217 139.811 11.9137 140.455 12.2979C141.106 12.682 141.598 13.2288 141.93 13.9385C142.262 14.6416 142.428 15.488 142.428 16.4775V17.8838H135.943L135.924 17.9326C135.95 18.486 136.064 18.9775 136.266 19.4072C136.474 19.8369 136.767 20.1755 137.145 20.4229C137.529 20.6702 137.994 20.7939 138.541 20.7939C139.114 20.7939 139.635 20.7158 140.104 20.5596C140.572 20.4033 141.005 20.182 141.402 19.8955L142.174 21.4385C141.757 21.79 141.227 22.0863 140.582 22.3271C139.938 22.568 139.186 22.6885 138.326 22.6885ZM135.982 16.1553H140.074V15.9014C140.074 15.4391 140.003 15.0355 139.859 14.6904C139.723 14.3389 139.505 14.0654 139.205 13.8701C138.912 13.6748 138.538 13.5771 138.082 13.5771C137.685 13.5771 137.337 13.6878 137.037 13.9092C136.738 14.1305 136.497 14.4333 136.314 14.8174C136.139 15.195 136.018 15.6247 135.953 16.1064L135.982 16.1553Z" fill="#0368FF"/>
<path d="M145.246 26.751C145.044 26.751 144.81 26.7314 144.543 26.6924C144.283 26.6533 144.055 26.6045 143.859 26.5459L144.133 24.7002C144.25 24.7197 144.39 24.736 144.553 24.749C144.722 24.762 144.855 24.7686 144.953 24.7686C145.363 24.7686 145.708 24.6383 145.988 24.3779C146.268 24.124 146.496 23.7692 146.672 23.3135L146.994 22.4639L143.381 13.6064L142.15 13.4307V11.917H147.268V13.4307L145.969 13.626L147.805 18.5479L148.127 19.4658H148.186L150.354 13.6162L149.055 13.4307V11.917H153.908V13.4307L152.766 13.5967L148.674 24.0752C148.479 24.57 148.234 25.0192 147.941 25.4229C147.655 25.833 147.29 26.1553 146.848 26.3896C146.411 26.6305 145.878 26.751 145.246 26.751Z" fill="#0368FF"/>
</svg>
