<svg width="35" height="32" viewBox="0 0 35 32" fill="none" xmlns="http://www.w3.org/2000/svg">
<path d="M18.7324 32H10.1056V30.75H18.7324V32Z" fill="#035EE5"/>
<path d="M24.6479 32H19.9648V30.75H24.6479V32Z" fill="#035EE5"/>
<path d="M11.0915 28.9881H4.6831V27.7381H11.0915V28.9881Z" fill="#035EE5"/>
<path d="M17.993 28.9881H12.8169V27.7381H17.993V28.9881Z" fill="#035EE5"/>
<path d="M30.3169 28.9881H19.4718V27.7381H30.3169V28.9881Z" fill="#035EE5"/>
<path d="M22.8094 16.0159L22.8101 16.0166L22.8118 16.0181C22.8135 16.0194 22.8159 16.0216 22.819 16.0242C22.8253 16.0294 22.8347 16.037 22.8465 16.0469C22.8701 16.0666 22.9043 16.0953 22.9464 16.1313C23.0306 16.2036 23.147 16.3056 23.2761 16.4246C23.5328 16.6611 23.8457 16.9709 24.0531 17.2505C24.5017 17.8551 24.6889 18.6292 24.7239 19.4377C24.759 20.2471 24.6421 21.1019 24.4727 21.8788C24.303 22.6563 24.0797 23.3604 23.8988 23.8698C23.8084 24.1246 23.7285 24.3313 23.6711 24.4742C23.6424 24.5456 23.6192 24.6011 23.6032 24.639C23.5953 24.658 23.5892 24.6726 23.5849 24.6825C23.5828 24.6874 23.581 24.6912 23.5799 24.6937L23.5787 24.6966L23.5782 24.6976L23.5657 24.7262H28.838V25.9762H0V24.7262H4.15933L4.14754 24.6749L3.49427 21.8066L3.67793 21.8398C3.90425 21.8806 4.48917 22.0351 5.18256 22.1894C5.88474 22.3456 6.71386 22.5057 7.45671 22.5656C8.64389 22.6612 9.77118 22.7096 10.8451 22.6884V19.8312V19.2497L11.831 18.6247V22.6474C12.9735 22.5739 14.0541 22.408 15.0814 22.1181C17.3326 21.4827 19.3343 20.2521 21.1712 18.0925C21.4869 17.7213 21.8508 17.2107 22.1371 16.7903C22.2799 16.5806 22.4028 16.3943 22.49 16.2605C22.5336 16.1936 22.5681 16.1398 22.5918 16.1028C22.6036 16.0843 22.6129 16.07 22.619 16.0603C22.622 16.0555 22.6245 16.0517 22.626 16.0493L22.6277 16.0466L22.7023 15.9285L22.8094 16.0159Z" fill="#035EE5"/>
<path d="M35 25.9762H30.0704V24.7262H35V25.9762Z" fill="#035EE5"/>
<path d="M12.6937 13.9309C16.4565 11.2674 24.3125 7.06676 26.2478 11.8612C26.3577 13.1775 26.383 14.0583 26.1268 15.0603C22.9866 9.82201 14.3602 15.4007 10.5986 18.3232C11.365 17.0071 12.2617 15.1279 12.6937 13.9309Z" fill="#035EE5"/>
<path d="M10.8451 16.3748V14.3076H11.831L10.8451 16.3748Z" fill="#035EE5"/>
<path d="M11.831 1.7822C15.1898 1.95187 17.8159 2.59554 19.8519 3.53755C18.197 3.36005 14.7892 5.01722 13.292 5.86808C12.9625 4.35987 12.3993 3.16806 11.831 2.34714V14.3052H10.8451V0.0029341H11.831V1.7822Z" fill="#035EE5"/>
<path d="M13.5301 6.97792C15.4922 5.79412 19.5205 3.64847 21.798 4.53631C23.4837 5.82956 24.9977 7.8313 25.6003 9.41881C22.8527 7.11003 16.1489 10.3809 13.1404 12.305C13.575 10.4891 13.6602 8.40679 13.5301 6.97792Z" fill="#035EE5"/>
<path d="M28.838 4.01581C28.9021 4.01583 28.9646 4.03576 29.0174 4.0727C29.0701 4.10964 29.1109 4.16196 29.1339 4.22284L29.5861 5.42009C29.5941 5.44119 29.6063 5.46054 29.622 5.47648C29.6377 5.49249 29.6566 5.50479 29.6774 5.51286L30.8534 5.97355C30.9132 5.99698 30.9645 6.03844 31.0007 6.0922C31.0369 6.14594 31.0563 6.20965 31.0563 6.27481C31.0563 6.33992 31.0369 6.40353 31.0007 6.45718C30.9645 6.51092 30.9131 6.55233 30.8534 6.57583L29.6774 7.03652C29.6566 7.04458 29.6377 7.05689 29.622 7.07289C29.6063 7.0889 29.5941 7.10818 29.5861 7.12929L29.1372 8.31824C29.1167 8.37443 29.0816 8.42399 29.0356 8.46154C28.9897 8.49902 28.9346 8.52317 28.8763 8.53137C28.8062 8.54002 28.7351 8.52447 28.6746 8.48742C28.6141 8.45031 28.5675 8.39362 28.5422 8.32654L28.0899 7.12929C28.082 7.10818 28.0698 7.0889 28.0541 7.07289C28.0384 7.05689 28.0194 7.04458 27.9987 7.03652L26.8226 6.57583C26.7629 6.55233 26.7115 6.51092 26.6753 6.45718C26.6391 6.40353 26.6197 6.33992 26.6197 6.27481C26.6197 6.20965 26.6391 6.14594 26.6753 6.0922C26.7115 6.03844 26.7629 5.99698 26.8226 5.97355L27.9987 5.51286C28.0194 5.50479 28.0384 5.49249 28.0541 5.47648C28.0698 5.46054 28.082 5.44119 28.0899 5.42009L28.5422 4.22284C28.5652 4.16196 28.6059 4.10964 28.6587 4.0727C28.7115 4.03576 28.774 4.01583 28.838 4.01581Z" fill="#035EE5"/>
<path d="M32.4117 4.46057e-06C32.4799 -0.000343154 32.5464 0.020604 32.6026 0.059818C32.6587 0.0990411 32.7021 0.154671 32.7263 0.219483L33.2633 1.64134C33.2742 1.66999 33.2908 1.69603 33.3122 1.71775C33.3335 1.73946 33.3589 1.75648 33.3871 1.76756L34.7838 2.31467C34.8475 2.33953 34.9022 2.38349 34.9408 2.44064C34.9794 2.49784 35 2.56582 35 2.63522C35 2.70457 34.9794 2.7724 34.9408 2.82955C34.9022 2.88671 34.8475 2.93066 34.7838 2.95553L33.3875 3.50215C33.3594 3.51322 33.3338 3.53023 33.3124 3.55195C33.2911 3.57367 33.2744 3.59972 33.2636 3.62837L32.7263 5.05071C32.7019 5.11544 32.6587 5.17109 32.6026 5.21037C32.5465 5.24967 32.4799 5.27067 32.4117 5.27068C32.3436 5.27068 32.277 5.24968 32.2209 5.21037C32.1647 5.17109 32.1216 5.11545 32.0971 5.05071L31.5601 3.62885C31.5493 3.60021 31.5326 3.57416 31.5113 3.55244C31.49 3.53075 31.4645 3.51371 31.4364 3.50264L30.048 2.9587C29.9818 2.93371 29.9249 2.88847 29.8848 2.82931C29.8447 2.77012 29.8234 2.6998 29.8239 2.62789C29.825 2.55974 29.8462 2.49353 29.8846 2.43771C29.9231 2.38187 29.977 2.33889 30.0396 2.31467L31.4359 1.76804C31.4641 1.75697 31.4897 1.73996 31.511 1.71824C31.5323 1.69654 31.5488 1.67045 31.5596 1.64182L32.0971 0.219483C32.1214 0.154716 32.1645 0.0990337 32.2206 0.059818C32.2768 0.0205838 32.3436 -0.000351315 32.4117 4.46057e-06Z" fill="#035EE5"/>
</svg>
